HIERARCHY
ROOT Hips
{
    OFFSET 0.000000 0.000000 0.000000
    CHANNELS 6 Xposition Yposition Zposition Zrotation Xrotation Yrotation
    JOINT Spine
    {
        OFFSET -0.000000 14.517291 0.000000
        CHANNELS 3 Zrotation Xrotation Yrotation
        JOINT Spine1
        {
            OFFSET -0.000000 37.558300 0.000000
            CHANNELS 3 Zrotation Xrotation Yrotation
            JOINT Neck
            {
                OFFSET -0.000000 37.404057 3.400369
                CHANNELS 3 Zrotation Xrotation Yrotation
                JOINT Head
                {
                    OFFSET -0.000000 24.785618 -3.540803
                    CHANNELS 3 Zrotation Xrotation Yrotation
                    End Site
                    {
                        OFFSET -0.000000 35.408028 0.000000
                    }
                }
            }
            JOINT LeftShoulder
            {
                OFFSET 6.992933 33.973492 -0.192664
                CHANNELS 3 Zrotation Xrotation Yrotation
                JOINT LeftArm
                {
                    OFFSET 21.527611 0.000000 0.000000
                    CHANNELS 3 Zrotation Xrotation Yrotation
                    JOINT LeftForeArm
                    {
                        OFFSET 56.353916 0.000000 0.000000
                        CHANNELS 3 Zrotation Xrotation Yrotation
                        JOINT LeftHand
                        {
                            OFFSET 47.774071 0.000000 0.000000
                            CHANNELS 3 Zrotation Xrotation Yrotation
                            End Site
                            {
                                OFFSET 26.556021 0.000000 0.000000
                            }
                        }
                    }
                }
            }
            JOINT RightShoulder
            {
                OFFSET -7.065357 33.973492 -0.192664
                CHANNELS 3 Zrotation Xrotation Yrotation
                JOINT RightArm
                {
                    OFFSET -21.527611 0.000000 0.000000
                    CHANNELS 3 Zrotation Xrotation Yrotation
                    JOINT RightForeArm
                    {
                        OFFSET -56.353916 0.000000 0.000000
                        CHANNELS 3 Zrotation Xrotation Yrotation
                        JOINT RightHand
                        {
                            OFFSET -47.774071 0.000000 0.000000
                            CHANNELS 3 Zrotation Xrotation Yrotation
                            End Site
                            {
                                OFFSET -26.556021 0.000000 0.000000
                            }
                        }
                    }
                }
            }
        }
    }
    JOINT LeftUpLeg
    {
        OFFSET 17.704014 0.000000 0.000000
        CHANNELS 3 Zrotation Xrotation Yrotation
        JOINT LeftLeg
        {
            OFFSET -0.000000 -81.181816 0.000000
            CHANNELS 3 Zrotation Xrotation Yrotation
            JOINT LeftFoot
            {
                OFFSET -0.000000 -62.821102 0.000000
                CHANNELS 3 Zrotation Xrotation Yrotation
                JOINT LeftToeBase
                {
                    OFFSET -0.000000 -11.507608 26.556021
                    CHANNELS 3 Zrotation Xrotation Yrotation
                    End Site
                    {
                        OFFSET -0.000000 0.000000 7.081605
                    }
                }
            }
        }
    }
    JOINT RightUpLeg
    {
        OFFSET -17.704014 0.000000 0.000000
        CHANNELS 3 Zrotation Xrotation Yrotation
        JOINT RightLeg
        {
            OFFSET -0.000000 -81.181816 0.000000
            CHANNELS 3 Zrotation Xrotation Yrotation
            JOINT RightFoot
            {
                OFFSET -0.000000 -62.821102 0.000000
                CHANNELS 3 Zrotation Xrotation Yrotation
                JOINT RightToeBase
                {
                    OFFSET -0.000000 -11.507608 26.556021
                    CHANNELS 3 Zrotation Xrotation Yrotation
                    End Site
                    {
                        OFFSET -0.000000 0.000000 7.081605
                    }
                }
            }
        }
    }
}
MOTION
Frames:    4
Frame Time:    0.008333
28.154425    155.169891    47.450150    19.465155    3.544349    -76.005402    4.056878    6.687335    0.754688    0.728607    -2.669954    0.343724    18.629471    -2.962231    10.571272    -13.905731    4.308096    6.254930    12.241052    1.857748    -13.724337    -10.895434    -5.681244    -16.641697    19.882917    -6.913887    -46.054054    -6.125984    4.013907    -42.667698    -11.413058    -3.353307    -5.695850    26.296181    -27.781191    36.028004    5.251599    -23.671286    102.946442    13.943756    -26.326859    29.379028    32.455479    -32.832226    19.123558    -19.717173    24.952204    0.939858    -14.866726    -5.393530    53.093685    0.000000    0.000000    0.000000    -31.882381    -33.748512    -22.308008    7.035769    30.220457    -9.142225    12.817000    2.422982    -1.784991    0.000000    0.000000    0.000000    
27.801020    155.153259    47.480698    19.118692    3.505163    -75.970825    3.974113    6.461547    0.766197    0.753576    -2.642903    0.344015    18.541317    -3.056633    10.546206    -13.736945    4.440281    6.262723    12.210314    1.828785    -13.718478    -10.946748    -5.433272    -16.583214    20.166786    -7.008305    -46.028503    -6.092802    4.029869    -42.739349    -11.447042    -3.336602    -5.686462    26.218138    -27.415056    35.951393    5.047459    -24.175732    102.944908    14.009268    -26.575975    29.365232    32.375088    -32.433521    18.918837    -19.713779    25.009430    0.889011    -14.837722    -5.545853    53.057995    0.000000    0.000000    0.000000    -31.657152    -33.367722    -22.004557    6.997410    30.320267    -9.127365    12.917272    2.213176    -1.773504    0.000000    0.000000    0.000000    
27.441534    155.133530    47.509991    18.772587    3.465717    -75.923828    3.881151    6.210826    0.763570    0.781519    -2.581271    0.339078    18.491926    -3.139324    10.557015    -13.607757    4.545714    6.295376    12.158641    1.837088    -13.727596    -10.950772    -5.360937    -16.515093    20.336885    -7.058371    -46.077633    -6.149174    4.087517    -42.751266    -11.412725    -3.253903    -5.704404    26.327179    -27.579725    36.035961    5.158950    -23.975100    102.950470    14.034913    -26.503922    29.330254    32.289608    -32.045635    18.666523    -19.722441    25.064320    0.858808    -14.813016    -5.706367    53.041336    0.000000    0.000000    0.000000    -31.432690    -32.977581    -21.735991    6.931653    30.428028    -9.044658    13.018059    1.975350    -1.788287    0.000000    0.000000    0.000000    
27.059278    155.119034    47.564571    18.399912    3.416249    -75.877373    3.817344    6.021342    0.758548    0.776169    -2.603215    0.334325    18.470161    -3.177407    10.553291    -13.524497    4.680280    6.313709    12.103160    1.849520    -13.708312    -11.007607    -5.226409    -16.480530    20.645412    -7.116620    -46.105869    -6.285469    4.228564    -42.817429    -11.392546    -3.161294    -5.734670    26.391689    -27.556772    36.080292    5.193455    -23.981682    102.975403    14.034967    -26.550804    29.338072    32.169674    -31.618895    18.374252    -19.712914    25.106079    0.805876    -14.783804    -5.900597    53.040218    0.000000    0.000000    0.000000    -31.220135    -32.542870    -21.439226    6.912704    30.523863    -8.951932    13.102036    1.728238    -1.855767    0.000000    0.000000    0.000000    
